# xmcd CD database file
#
# Track frame offsets:
#	150
#	13800
#	42797
#	66412
#	85280
#	118892
#	135517
#	152425
#	168585
#	194515
#	216180
#	232027
#	246310
#	267075
#	292392
#	305082
#	332237
#
# Disc length: 4673 seconds
#
# Revision: 0
# Processed by: cddbd v1.4PL0 Copyright (c) Steve Scherf et al.
# Submitted via: CDex 1.40Release
#
DISCID=0b123f11
DTITLE=Peter Thorup 16 tons trio - Peter Thorup
DYEAR=1987
DGENRE=Blues
TTITLE0=16 Tons
TTITLE1=Chica boom
TTITLE2=Suppose
TTITLE3=Keep movin
TTITLE4=Farmen
TTITLE5=Let me take you home
TTITLE6=Gospel ship
TTITLE7=Help me
TTITLE8=A-Minor blues
TTITLE9=Wild injun women
TTITLE10=Lies
TTITLE11=Sneakin
TTITLE12=Come home in my kitchen
TTITLE13=You`ve got the power
TTITLE14=One scotch, one bourben, one beer
TTITLE15=Leave
TTITLE16=Don`t change on me
EXTD=YEAR: 1987 ID3G: 0
EXTT0=
EXTT1=
EXTT2=
EXTT3=
EXTT4=
EXTT5=
EXTT6=
EXTT7=
EXTT8=
EXTT9=
EXTT10=
EXTT11=
EXTT12=
EXTT13=
EXTT14=
EXTT15=
EXTT16=
PLAYORDER=
